<svg xmlns="http://www.w3.org/2000/svg" version="1.0" viewBox="0 0 56 63"><path d="M20.3 2.3c-1.8 1.2-4 3.7-4.8 5.4-1.8 3.7-4.2 5.3-8 5.3C4.4 13 3 16 3 22.9c0 2.6-.7 9.2-1.5 14.7-2.3 15.5-2.1 18 1.9 22L6.8 63h42.4l3.4-3.4c4-4 4.2-6.3 1.9-22.1C53.7 32 53 25.4 53 22.8c0-6.8-1.4-9.8-4.5-9.8-3.8 0-6.2-1.6-8-5.3C37.1.5 27-2.2 20.3 2.3zm12.4 6.2c2.4 2.1 2.6 2.6 1.3 3.5-.8.5-3.5 1-6 1s-5.2-.5-6-1c-1.3-.9-1.1-1.4 1.3-3.5C24.8 7.1 27 6 28 6s3.2 1.1 4.7 2.5zM12.8 21.8c.2 1.2 1.3 2.7 2.4 3.3 1.8.9 2.4.8 3.5-.7.7-1 1.3-2.3 1.3-3 0-1.7 2.4-2.4 8-2.4s8 .7 8 2.4c0 .7.6 2 1.3 3 1.1 1.5 1.7 1.7 3.5.7 1.2-.6 2.2-2 2.2-3.1 0-2.4 2-3.7 3.1-1.9.5.8.9 3.9.9 7 0 3 .4 8 .9 11 2.2 12.8 2.2 14.8.1 16.9-1.8 1.8-3.4 2-20 2-23.9 0-23.2.7-19.9-18.9.5-3 .9-7.5.9-10 0-5.9.9-9.3 2.4-8.8.6.2 1.2 1.3 1.4 2.5z"/></svg>